<svg version="1.1" id="Layer_1" xmlns="http://www.w3.org/2000/svg" xmlns:xlink="http://www.w3.org/1999/xlink" x="0px" y="0px"
	 width="100%" viewBox="0 0 1024 1024" enable-background="new 0 0 1024 1024" xml:space="preserve">
<path fill="#000000" opacity="1.000000" stroke="none" 
	d="
M662.325500,638.325317 
	C630.310791,670.439392 598.520264,702.277832 566.790710,734.177002 
	C546.110413,754.968018 525.618774,775.947388 504.863892,796.663330 
	C473.953888,827.515381 436.781616,846.016296 393.389099,850.988159 
	C355.387238,855.342285 319.341919,847.610901 285.870483,829.380981 
	C243.619675,806.369507 212.496277,772.838745 193.959198,728.164001 
	C182.873398,701.446899 178.137192,673.433044 179.932465,644.659912 
	C182.827377,598.262085 198.877960,557.021851 231.214966,522.972229 
	C272.533447,479.465515 315.657227,437.738159 358.001129,395.243195 
	C410.699707,342.356567 463.611389,289.681702 516.548706,237.033722 
	C548.456848,205.299988 586.629517,185.260895 631.533997,181.130142 
	C705.091553,174.363586 765.197632,200.076996 809.365845,260.088470 
	C828.920532,286.657562 839.627625,316.946075 843.385437,349.653656 
	C849.423340,402.208038 836.244019,449.708038 804.999512,492.180847 
	C793.007629,508.482239 777.830505,521.942200 763.659973,536.268921 
	C730.030396,570.268921 696.278198,604.147644 662.325500,638.325317 
M425.780548,685.086914 
	C425.377655,685.816223 424.986786,686.552429 424.570007,687.273743 
	C409.313873,713.676147 378.694824,725.606995 350.736572,716.045715 
	C322.300964,706.321228 304.979645,678.251892 308.829041,648.134216 
	C313.939270,608.152283 356.901459,583.751709 394.636475,599.640076 
	C398.884247,601.428528 401.277191,601.005188 404.452362,597.798584 
	C430.949280,571.039307 457.552185,544.383484 484.331146,517.906860 
	C487.985077,514.294189 487.862915,512.294861 484.326752,508.768616 
	C456.009186,480.530823 427.854492,452.129364 399.720917,423.707733 
	C396.584229,420.538940 393.890930,416.931213 390.992004,413.527039 
	C388.230225,415.026703 387.337463,416.302643 386.301208,417.336761 
	C343.723053,459.826752 300.656189,501.842041 258.734619,544.970581 
	C218.863403,585.989563 205.106247,635.621765 217.794891,691.240723 
	C229.062881,740.632385 258.889374,776.880310 303.545929,800.526123 
	C331.350647,815.248840 361.152222,821.073669 392.489532,816.363464 
	C426.079376,811.314575 454.542236,795.953186 478.409882,771.949280 
	C521.641357,728.470886 564.783020,684.903076 608.112000,641.522278 
	C611.853394,637.776428 611.200989,635.707397 607.822693,632.332703 
	C577.171997,601.714722 546.655701,570.962036 516.169678,540.179810 
	C513.667053,537.652893 512.002930,537.307251 509.272430,540.061707 
	C481.941071,567.632751 454.499725,595.094971 427.023560,622.521912 
	C424.979126,624.562622 424.396667,626.190857 425.751923,629.000061 
	C434.615204,647.372131 434.542023,665.885559 425.780548,685.086914 
M801.564697,318.851837 
	C792.338379,293.280579 777.991638,271.052368 757.479370,253.147629 
	C723.219177,223.242661 683.228577,209.847702 637.966858,214.616211 
	C600.745667,218.537628 568.934875,234.514557 542.422729,261.150085 
	C500.925964,302.840088 459.235107,344.337158 417.525970,385.814911 
	C414.498138,388.825897 414.189667,390.655731 417.382904,393.830902 
	C448.223480,424.496887 478.940155,455.287750 509.600555,486.134064 
	C512.119141,488.667877 513.697571,488.562958 516.059509,486.050903 
	C521.991028,479.742371 528.111938,473.609802 534.223999,467.473480 
	C555.155334,446.459045 576.090454,425.448120 597.102417,404.514526 
	C599.262085,402.362976 599.309875,400.541870 598.085083,397.908081 
	C594.969055,391.207520 593.220581,384.028717 592.816589,376.700165 
	C590.820862,340.498901 620.796753,310.700500 658.266357,313.294647 
	C684.431580,315.106171 716.739929,340.442261 712.405823,379.549744 
	C707.912842,420.091339 666.190552,444.548615 629.175110,428.106812 
	C624.759888,426.145599 622.178223,426.491852 618.813477,429.902283 
	C593.305725,455.756683 567.604004,481.419708 541.971191,507.150696 
	C536.420349,512.722717 536.421936,512.752014 541.982178,518.321533 
	C572.240479,548.630127 602.564758,578.873413 632.687378,609.316284 
	C636.047913,612.712524 637.782654,611.839294 640.612305,608.985779 
	C675.225891,574.080322 709.970825,539.305115 744.600830,504.415894 
	C758.081970,490.833923 772.252258,477.898621 782.903503,461.714294 
	C812.106873,417.340454 818.225586,369.992065 801.564697,318.851837 
M350.351288,637.861877 
	C344.087830,645.399719 340.904999,653.719238 343.376984,663.670471 
	C346.708557,677.082092 359.672424,686.077942 373.856934,684.647766 
	C386.576630,683.365234 397.498383,671.260681 397.821686,658.048096 
	C398.122406,645.756409 392.425110,636.775818 381.587189,631.703491 
	C370.351746,626.445068 359.885376,628.891479 350.351288,637.861877 
M629.285828,363.890381 
	C626.559326,370.364532 626.660583,376.773376 629.524597,383.208679 
	C634.565308,394.535004 647.210266,401.187805 658.494507,398.354126 
	C669.996033,395.465881 679.402161,383.242554 678.565979,372.270996 
	C677.633606,360.036163 668.431946,349.962738 656.074219,347.648438 
	C646.230469,345.804932 634.888855,352.444946 629.285828,363.890381 
z"/>
</svg>